<svg width="75" height="75" viewBox="0 0 75 75" fill="none" xmlns="http://www.w3.org/2000/svg">
<path d="M53.125 56.25C54.7826 56.25 56.3723 56.9085 57.5444 58.0806C58.7165 59.2527 59.375 60.8424 59.375 62.5C59.375 64.1576 58.7165 65.7473 57.5444 66.9194C56.3723 68.0915 54.7826 68.75 53.125 68.75C49.6562 68.75 46.875 65.9375 46.875 62.5C46.875 59.0312 49.6562 56.25 53.125 56.25ZM3.125 6.25H13.3438L16.2812 12.5H62.5C63.3288 12.5 64.1237 12.8292 64.7097 13.4153C65.2958 14.0013 65.625 14.7962 65.625 15.625C65.625 16.1562 65.4687 16.6875 65.25 17.1875L54.0625 37.4062C53 39.3125 50.9375 40.625 48.5938 40.625H25.3125L22.5 45.7188L22.4062 46.0938C22.4062 46.3009 22.4886 46.4997 22.6351 46.6462C22.7816 46.7927 22.9803 46.875 23.1875 46.875H59.375V53.125H21.875C18.4062 53.125 15.625 50.3125 15.625 46.875C15.625 45.7812 15.9062 44.75 16.375 43.875L20.625 36.2188L9.375 12.5H3.125V6.25ZM21.875 56.25C23.5326 56.25 25.1223 56.9085 26.2944 58.0806C27.4665 59.2527 28.125 60.8424 28.125 62.5C28.125 64.1576 27.4665 65.7473 26.2944 66.9194C25.1223 68.0915 23.5326 68.75 21.875 68.75C18.4062 68.75 15.625 65.9375 15.625 62.5C15.625 59.0312 18.4062 56.25 21.875 56.25ZM50 34.375L58.6875 18.75H19.1875L26.5625 34.375H50Z" fill="#878282"/>
</svg>
