<svg width="75" height="75" viewBox="0 0 75 75" fill="none" xmlns="http://www.w3.org/2000/svg">
<path d="M65.625 12.5H9.375C7.7174 12.5 6.12769 13.1585 4.95558 14.3306C3.78348 15.5027 3.125 17.0924 3.125 18.75V59.375C3.125 61.0326 3.78348 62.6223 4.95558 63.7944C6.12769 64.9665 7.7174 65.625 9.375 65.625H65.625C67.2826 65.625 68.8723 64.9665 70.0444 63.7944C71.2165 62.6223 71.875 61.0326 71.875 59.375V18.75C71.875 17.0924 71.2165 15.5027 70.0444 14.3306C68.8723 13.1585 67.2826 12.5 65.625 12.5ZM9.375 59.375V18.75H34.375V59.375H9.375ZM65.625 59.375H40.625V18.75H65.625V59.375ZM43.75 29.6875H62.5V34.375H43.75V29.6875ZM43.75 37.5H62.5V42.1875H43.75V37.5ZM43.75 45.3125H62.5V50H43.75V45.3125Z" fill="#878282"/>
</svg>
