<svg width="75" height="75" viewBox="0 0 75 75" fill="none" xmlns="http://www.w3.org/2000/svg">
<path d="M60.3438 59.0625C64.5 52.5 62.5 43.75 55.9688 39.6562C49.4375 35.5625 40.7188 37.5 36.5625 44.0625C32.4062 50.625 34.375 59.375 40.9375 63.4375C45.5 66.3125 51.3125 66.3438 55.875 63.5L65.625 73.0938L69.9688 68.75M48.4375 59.375C44.125 59.375 40.625 55.875 40.625 51.5625C40.625 47.25 44.125 43.75 48.4375 43.75C52.75 43.75 56.25 47.25 56.25 51.5625C56.25 55.875 52.75 59.375 48.4375 59.375ZM31.3438 62.5H15.625V25H59.375V34.4688C61.9062 36.0938 64.0625 38.25 65.625 40.7812V25C65.625 21.5625 62.8125 18.75 59.375 18.75H53.125C53.125 10 46.25 3.125 37.5 3.125C28.75 3.125 21.875 10 21.875 18.75H15.625C12.1875 18.75 9.375 21.5625 9.375 25V62.5C9.375 65.9375 12.1875 68.75 15.625 68.75H37.6562C35.125 67.1875 32.9688 65.0312 31.3438 62.5ZM37.5 9.375C42.8125 9.375 46.875 13.4375 46.875 18.75H28.125C28.125 13.4375 32.1875 9.375 37.5 9.375ZM46.875 28.125H53.125C53.125 29.375 52.9688 30.5625 52.6875 31.7187C51.3125 31.4062 49.9062 31.25 48.4375 31.25C47.7188 31.25 47 31.25 46.3125 31.375C46.6562 30.3438 46.875 29.2812 46.875 28.125ZM30.5 42.0625C25.375 39.5312 21.875 34.375 21.875 28.125H28.125C28.125 32.3125 30.6875 35.6875 34.375 36.9375C32.8125 38.4375 31.5 40.1562 30.5 42.0625Z" fill="#878282"/>
</svg>
